<svg xmlns="http://www.w3.org/2000/svg" width="140" height="39.569" viewBox="0 0 140 39.569"><path d="M-224.693-69.454V-32.08h-7.683L-251.2-67.588v34.465h3.018v1.043H-255.7v-1.043h3.018V-69.454H-255.7V-70.5h15.147l14.379,27.55V-69.454h-3.018V-70.5h7.519v1.043Zm31.337,20.416V-53.1q0-10.043-.988-12.677-1.1-3.018-3.128-3.732a7.886,7.886,0,0,0-2.8-.439,8.118,8.118,0,0,0-2.826.439,4.083,4.083,0,0,0-1.948,1.537,10.793,10.793,0,0,0-1.235,2.3,15.023,15.023,0,0,0-.741,3.4q-.329,3.183-.329,9.385v3.951a59.7,59.7,0,0,0,.521,9.522,12.04,12.04,0,0,0,1.29,4.034,5.793,5.793,0,0,0,5.269,2.689q4.336,0,5.625-3.65T-193.356-49.038Zm-7.025,17.507q-9.165,0-13.693-4.967T-218.6-50.877q0-9.412,4.857-14.818T-200-71.1q8.891,0,13.418,5.131T-182.05-51.4q0,9.439-4.583,14.653T-200.381-31.531Zm41.16-10.482,9.549-27.44h-4.281V-70.5h8.4v1.043h-2.579l-13.226,37.922h-4.61l-13.995-37.922h-2.524V-70.5h17.946v1.043h-3.9Zm29.471,8.891-4.006-11.854h-10.866l-4.226,11.854h4.116v1.043h-8.4v-1.043h2.579l13.994-37.7h4.5l13.83,37.7h2.525v1.043h-17.946v-1.043Zm-9.22-27.44-5.159,14.379h9.933Z" transform="translate(255.7 71.1)"/></svg>