<?xml version="1.0" encoding="utf-8"?>
<!-- Generator: Adobe Illustrator 24.0.1, SVG Export Plug-In . SVG Version: 6.00 Build 0)  -->
<svg version="1.1" id="Capa_1" xmlns="http://www.w3.org/2000/svg" xmlns:xlink="http://www.w3.org/1999/xlink" x="0px" y="0px"
	 viewBox="0 0 518 92" style="enable-background:new 0 0 518 92;" xml:space="preserve">
<style type="text/css">
	.st0{fill:#1D1D1B;}
	.st1{opacity:0.99;fill:#1D1D1B;}
</style>
<g>
	<path class="st0" d="M383.05,48.5c0.32,0,0.59,0.22,0.64,0.49c0.38,2.01,1.74,6.63,5.28,6.63c3.48,0,5-1.63,5-4.67
		c0-4.51-5.6-6.04-9.25-6.04c-0.08,0-0.25,0-0.38,0.02l0,0c0,0-0.01,0-0.01,0c0,0-0.01,0-0.01,0l0,0c-5.36,0.69-8.71,5-13.51,11.77
		L366.3,63c-2.54-4.23-6.31-14.4-6.78-19.86c4.23-0.94,9.7-2.45,13.84-4.33c6.31-2.82,12.8-6.31,12.8-14.22
		c0-7.63-6.59-11.49-13.65-11.49c-13.18,0-20.99,10.64-20.99,23.16c0,1.88,0.09,3.58,0.28,5.18c-8,2.17-22.88,8.28-22.88,23.07
		c0,9.79,6.21,17.32,16.29,17.32c7.06,0,12.9-3.76,17.51-8.85c3.2,4.99,6.97,8.85,13.27,8.85c6.21,0,9.23-3.29,12.99-7.72
		c0,0-2.05-2-2.08-1.96c-2.21,2.4-3.91,4.59-7.71,4.59c-3.86,0-8.1-3.29-11.11-10.36l6.4-8.85
		C377.21,53.97,381.26,48.51,383.05,48.5z M371.57,16.81c4.8,0,7.91,2.82,7.91,7.63c0,9.51-13.75,15.63-20.53,15.63
		c-0.56-2.35-0.75-4.52-0.75-6.68C358.2,25.76,362.91,16.81,371.57,16.81z M348.88,77.16c-6.97,0-11.01-6.31-11.01-12.71
		c0-9.98,4.8-16.57,14.31-19.49c1.88,8.85,4.52,17.51,8.66,25.51C357.73,74.43,354.06,77.16,348.88,77.16z"/>
	<path class="st1" d="M45.54,13.52c16.66,0,30.5,13.65,30.5,34.36c0,20.71-13.84,34.36-30.5,34.36s-30.5-13.65-30.5-34.36
		C15.04,27.17,28.87,13.52,45.54,13.52z M35.84,47.88c0,10.26,0.47,27.3,9.7,27.3s9.7-17.04,9.7-27.3c0-10.26-0.47-27.3-9.7-27.3
		S35.84,37.62,35.84,47.88z"/>
	<g>
		
			<ellipse transform="matrix(1 -6.024158e-03 6.024158e-03 1 -0.1373 1.0337)" class="st0" cx="171.53" cy="23.3" rx="9.79" ry="9.79"/>
		<path class="st0" d="M233.46,73.96v-25.7c0-9.88-6.21-14.22-14.5-14.22c-5.37,0-9.79,2.73-13.56,6.5l-1.41-6.5l-19.49,5.08v5.46
			c2.17,0.09,4.43,0.85,4.43,2.64v26.74l-4.42,0.66l-4.42-0.66V34.04l-21.56,5.84v5.46c2.17,0.09,4.43,0.85,4.43,2.64v25.99
			l-4.42,0.66l-4.42-0.66V9.09l-21.56,4.61v5.46c2.17,0.09,4.42,0.85,4.42,2.64v52.16l-4.42,0.66l-4.42-0.66v-25.7
			c0-9.88-6.21-14.22-14.5-14.22c-5.37,0-9.79,2.73-13.56,6.5l-1.41-6.5l-19.49,5.08v5.46c2.16,0.09,4.42,0.85,4.42,2.64v26.74
			l-4.42,0.66v6.21h24.48v-6.21l-2.92-0.66V47.41c0-2.26,2.45-3.95,4.62-3.95c4.33,0,5.65,2.26,5.65,6.31v24.2l-2.92,0.66v6.21
			h24.48h0h25.98h0.01h25.97h0.01h24.47v-6.21l-2.92-0.66V47.41c0-2.26,2.45-3.95,4.61-3.95c4.33,0,5.65,2.26,5.65,6.31v24.2
			l-2.92,0.66v6.21h24.48v-6.21L233.46,73.96z"/>
	</g>
	<path class="st0" d="M256.43,61.81c0.56,4.99,3.76,9.98,9.23,9.98c4.43,0,7.06-2.73,9.32-6.21l4.61,5.46
		c-4.23,7.25-12.15,11.11-20.33,11.11c-14.31,0-21.09-10.83-21.09-22.69c0-15.16,8.76-25.42,21.94-25.42
		c12.43,0,19.02,10.07,19.68,21.46L256.43,61.81z M255.3,54.94l4.14-1.13c2.45-0.66,4.14-1.51,4.14-5.09c0-3.01-0.85-8.47-4.42-8.47
		c-3.86,0-3.86,6.5-3.86,9.98V54.94z"/>
	<path class="st0" d="M317.23,42.89c0,3.86-3.29,5.74-6.78,5.74c-3.97,0-7.58-4.41-8.02-9.08c-0.05-0.57-0.62-0.94-1.17-0.79
		c-2.3,0.63-4.74,3.06-4.74,6.29c0,7.15,22.59,2.07,22.59,20.15c0,13.56-11.39,16.94-20.81,16.94c-5.84,0-17.23-0.78-16.84-9.96
		c0.16-3.81,3.15-6.8,6.96-6.8c6.12,0,7.44,5.37,8.47,9.32c0.49,1.9,2.55,1.85,3.39,1.76c3.1-0.33,6.12-2.13,6.12-5.34
		c0-7.72-22.59-3.11-22.59-20.71c0-13.37,11.39-16.38,20.8-16.38C311.86,34.04,317.23,36.58,317.23,42.89z"/>
	<g>
		<path class="st0" d="M444.55,70.85c-3.39,7.34-10.45,11.3-19.58,11.3c-14.41,0-22.88-8.94-22.88-23.35
			c0-13.37,10.26-24.76,25.04-24.76c6.31,0,16.01,2.64,16.01,10.45c0,5.27-2.64,8.09-8.66,8.09c-6.12,0-8.47-8-9.13-11.48
			c-0.09-0.47-0.56-0.85-1.13-0.85c-2.73,0-4.05,7.25-4.05,11.86c0,7.44,0.85,20.62,10.83,20.62c4.14,0,6.4-3.48,8.76-6.59
			L444.55,70.85z"/>
		<path class="st0" d="M492.99,58.14c0,14.59-9.88,24.01-23.44,24.01s-23.44-9.41-23.44-24.1c0-14.59,9.88-24.01,23.44-24.01
			S492.99,43.46,492.99,58.14z M464.18,58.14c0,9.98,0,17.79,5.37,17.79s5.37-7.82,5.37-17.79c0-6.97,0-17.89-5.37-17.89
			S464.18,51.18,464.18,58.14z"/>
		<path class="st0" d="M497.35,82.15c-3.48,0-5.84-2.64-5.84-6.12s2.35-6.12,5.84-6.12c3.48,0,5.84,2.64,5.84,6.12
			S500.83,82.15,497.35,82.15z"/>
	</g>
</g>
</svg>
